<svg xmlns="http://www.w3.org/2000/svg" xmlns:xlink="http://www.w3.org/1999/xlink" fill="none" version="1.1" width="20" height="20" viewBox="0 0 20 20"><defs><clipPath id="master_svg0_222_9926"><rect x="0" y="0" width="20" height="20" rx="0"/></clipPath></defs><g clip-path="url(#master_svg0_222_9926)"><g><path d="M16.3961015625,2.298364453125C14.2615015625,0.522064453125,11.4816015625,-0.281012546875,8.7286015625,0.083360653125C3.5006015625,0.762545453125,-0.3021674375,5.383744453125,0.0377051625,10.644714453125C0.3784955625,15.906514453125,4.7442615625,20.000014453125,10.0152715625,20.000014453125L15.8336015625,20.000014453125C18.1336015625,19.997314453125,19.9975015625,18.133414453125,20.0003015625,15.833314453125L20.0003015625,9.424194453125L20.0003015625,9.371694453125C19.8220015625,6.618794453125,18.5185015625,4.060624453125,16.3961015625,2.298364453125ZM6.6669315625,5.833364453125L10.0002715625,5.833364453125C10.4605015625,5.833364453125,10.8336015625,6.206454453125,10.8336015625,6.666694453125C10.8336015625,7.126934453125,10.4605015625,7.500024453125,10.0002715625,7.500024453125L6.6669315625,7.500024453125C6.2066915625,7.500024453125,5.8336015625,7.126934453125,5.8336015625,6.666694453125C5.8336015625,6.206454453125,6.2066915625,5.833364453125,6.6669315625,5.833364453125ZM13.3336015625,14.166714453125L6.6669315625,14.166714453125C6.2066915625,14.166714453125,5.8336015625,13.793614453125,5.8336015625,13.333314453125C5.8336015625,12.873114453125,6.2066915625,12.500014453125,6.6669315625,12.500014453125L13.3336015625,12.500014453125C13.7938015625,12.500014453125,14.1669015625,12.873114453125,14.1669015625,13.333314453125C14.1669015625,13.793614453125,13.7938015625,14.166714453125,13.3336015625,14.166714453125ZM13.3336015625,10.833314453125L6.6669315625,10.833314453125C6.2066915625,10.833314453125,5.8336015625,10.460214453125,5.8336015625,10.000014453125C5.8336015625,9.539784453125,6.2066915625,9.166694453125,6.6669315625,9.166694453125L13.3336015625,9.166694453125C13.7938015625,9.166694453125,14.1669015625,9.539784453125,14.1669015625,10.000014453125C14.1669015625,10.460214453125,13.7938015625,10.833314453125,13.3336015625,10.833314453125Z" fill="#FFAF00" fill-opacity="1"/></g></g></svg>