<svg xmlns="http://www.w3.org/2000/svg" xmlns:xlink="http://www.w3.org/1999/xlink" fill="none" version="1.1" width="32" height="32" viewBox="0 0 32 32"><defs><clipPath id="master_svg0_5_1251"><rect x="0" y="0" width="32" height="32" rx="0"/></clipPath></defs><g clip-path="url(#master_svg0_5_1251)"><g><path d="M16,32C24.8366,32,32,24.8366,32,16C32,7.16344,24.8366,0,16,0C7.16344,0,0,7.16344,0,16C0.0095528,24.8326,7.1674,31.9904,16,32ZM16,6.66667C17.1046,6.66667,18,7.5621,18,8.66667C18,9.77124,17.1046,10.6667,16,10.6667C14.8954,10.6667,14,9.77124,14,8.66667C14,7.5621,14.8954,6.66667,16,6.66667ZM14.6667,13.3333L16,13.3333C17.4728,13.3333,18.6667,14.5272,18.6667,16L18.6667,24C18.6667,24.7364,18.0697,25.3333,17.3333,25.3333C16.597,25.3333,16,24.7364,16,24L16,16L14.6667,16C13.9303,16,13.3333,15.403,13.3333,14.6667C13.3333,13.9303,13.9303,13.3333,14.6667,13.3333Z" fill="#FDBE3A" fill-opacity="1"/></g></g></svg>