<svg xmlns="http://www.w3.org/2000/svg" xmlns:xlink="http://www.w3.org/1999/xlink" fill="none" version="1.1" width="130.79031372070312" height="34" viewBox="0 0 130.79031372070312 34"><defs><clipPath id="master_svg0_207_1862"><rect x="0" y="0" width="130.79031372070312" height="34" rx="0"/></clipPath></defs><g clip-path="url(#master_svg0_207_1862)"><g><g><g><path d="M43.8709716796875,23.690464044189454L43.8709716796875,10.309864044189453L48.6967816796875,10.309864044189453L51.3838816796875,21.99046404418945L51.7129116796875,21.99046404418945L51.7129116796875,10.309864044189453L54.1806716796875,10.309864044189453L54.1806716796875,23.74536404418945L49.354841679687496,23.74536404418945L46.6677416796875,12.064704044189453L46.3387116796875,12.064704044189453L46.3387116796875,23.74536404418945L43.8709716796875,23.74536404418945L43.8709716796875,23.690464044189454Z" fill="#FFFFFF" fill-opacity="1"/></g><g><path d="M61.3096863671875,23.964576309814454C60.377426367187496,23.964576309814454,59.5000063671875,23.745226309814456,58.7322663671875,23.416196309814453C57.9645263671875,23.032316309814455,57.3612963671875,22.483936309814453,56.9225893671875,21.771036309814452C56.4838773671875,21.058126309814455,56.2645263671875,20.180706309814454,56.2645263671875,19.138776309814453L56.2645263671875,18.809746309814454C56.2645263671875,17.767806309814453,56.4838823671875,16.890386309814453,56.9225893671875,16.177486309814455C57.3612963671875,15.464586309814454,57.9645263671875,14.916194309814454,58.7322663671875,14.532323309814453C59.5000063671875,14.148452309814454,60.3225963671875,13.983936309814453,61.3096863671875,13.983936309814453C62.2967763671875,13.983936309814453,63.1193663671875,14.148452309814454,63.8871063671875,14.532323309814453C64.6548463671875,14.916194309814454,65.2580663671875,15.464586309814454,65.6967863671875,16.177486309814455C66.1354963671875,16.890386309814453,66.3548263671875,17.767806309814453,66.3548263671875,18.809746309814454L66.3548263671875,19.138776309814453C66.3548263671875,20.180706309814454,66.1354863671875,21.058126309814455,65.6967863671875,21.771036309814452C65.2580663671875,22.483936309814453,64.6548463671875,23.032316309814455,63.8871063671875,23.416196309814453C63.1193563671875,23.800066309814454,62.2419463671875,23.964576309814454,61.3096863671875,23.964576309814454ZM61.3096863671875,21.82586630981445C62.0774263671875,21.82586630981445,62.6806563671875,21.606516309814452,63.1742063671875,21.112966309814453C63.6677563671875,20.619416309814454,63.8871063671875,19.961356309814455,63.8871063671875,19.029096309814452L63.8871063671875,18.809736309814454C63.8871063671875,17.932326309814453,63.6677563671875,17.219416309814452,63.1742063671875,16.725866309814453C62.6806563671875,16.232326309814454,62.0774263671875,16.012966309814452,61.3096863671875,16.012966309814452C60.5419463671875,16.012966309814452,59.9387163671875,16.232326309814454,59.4451663671875,16.725866309814453C58.9516163671875,17.219416309814452,58.7322663671875,17.877486309814454,58.7322663671875,18.809736309814454L58.7322663671875,19.029096309814452C58.7322663671875,19.906516309814453,58.9516163671875,20.619416309814454,59.4451663671875,21.112966309814453C59.9387163671875,21.606516309814452,60.5967763671875,21.82586630981445,61.3096863671875,21.82586630981445Z" fill="#FFFFFF" fill-opacity="1"/></g><g><path d="M70.248307734375,23.690417091064454L67.232177734375,14.148487091064453L69.809597734375,14.148487091064453L72.003147734375,21.880747091064453L72.332177734375,21.880747091064453L74.525727734375,14.148487091064453L77.103147734375,14.148487091064453L74.087017734375,23.690417091064454L70.248307734375,23.690417091064454Z" fill="#FFFFFF" fill-opacity="1"/></g><g><path d="M81.49030125,23.964617169189452C80.83223125,23.964617169189452,80.22900125,23.854957169189454,79.68062125,23.635607169189456C79.13223125,23.416247169189454,78.69352025,23.032387169189455,78.41932625,22.59366716918945C78.09029025,22.154967169189455,77.92578125,21.606577169189453,77.92578125,20.948507169189455C77.92578125,19.961417169189453,78.25481725,19.248507169189452,78.96771125,18.700127169189454C79.68062125,18.20657716918945,80.55803125,17.932377169189454,81.59997125,17.932377169189454L84.23223125,17.932377169189454L84.23223125,17.383997169189453C84.23223125,16.945287169189452,84.06771125,16.561417169189454,83.79352125,16.287217169189454C83.51933125,16.013027169189453,83.08062125000001,15.848507169189453,82.42255125,15.848507169189453C81.81932125,15.848507169189453,81.38062125,16.013027169189453,81.05158125,16.287217169189454C80.72255125,16.561417169189454,80.55804125,16.890447169189454,80.50320125,17.329157169189454L78.25480825,16.561417169189454C78.41932625,16.067867169189455,78.63867825,15.629157169189453,78.96771125,15.245287169189453C79.29675125,14.861413169189452,79.73545125,14.532382169189454,80.33868125,14.258188169189452C80.88707125,13.983995169189454,81.59997125,13.874317169189453,82.42255125,13.874317169189453C83.68384125,13.874317169189453,84.67094125,14.203349169189453,85.38384125,14.806575169189454C86.09674125,15.409797169189453,86.48061125,16.342057169189452,86.48061125,17.548507169189453L86.48061125,21.113027169189454C86.48061125,21.496897169189452,86.64513125,21.71624716918945,87.02900125,21.71624716918945L87.79674125,21.71624716918945L87.79674125,23.690447169189454L86.20642125,23.690447169189454C85.71288125,23.690447169189454,85.32900125,23.580767169189453,85.05480125,23.361407169189455C84.72577125,23.142057169189453,84.61609125,22.813027169189454,84.61609125,22.429157169189452L84.23222125,22.429157169189452C84.17738125,22.59366716918945,84.06770125,22.758187169189455,83.90319125,23.032377169189452C83.73867125,23.306567169189453,83.46448125,23.52592716918945,83.08061125,23.690447169189454C82.69675125,23.909817169189452,82.14836125,23.964617169189452,81.49030125,23.964617169189452ZM81.92900125,22.045287169189454C82.58706125,22.045287169189454,83.13545125,21.880767169189454,83.57416125,21.496897169189452C84.01287125,21.113027169189454,84.23222125,20.61947716918945,84.23222125,20.016247169189455L84.23222125,19.742057169189454L81.81932125,19.742057169189454C81.38061125,19.742057169189454,80.99674125,19.851737169189455,80.77739125,20.016247169189455C80.50320125,20.18076716918945,80.39352125,20.454957169189452,80.39352125,20.838837169189453C80.39352125,21.222707169189455,80.50320125,21.442057169189454,80.77739125,21.661417169189452C81.05158125,21.935607169189453,81.43545125,22.045287169189454,81.92900125,22.045287169189454Z" fill="#FFFFFF" fill-opacity="1"/></g><g><path d="M94.6515641796875,23.96466248168945C93.0064041796875,23.96466248168945,91.6902741796875,23.525962481689454,90.7031741796875,22.593662481689453C89.7160791796875,21.66136248168945,89.2225341796875,20.345262481689453,89.2225341796875,18.590442481689454L89.2225341796875,15.354952481689452C89.2225341796875,13.654952481689453,89.7160791796875,12.283992481689452,90.7031741796875,11.351732481689453C91.6902741796875,10.419471481689452,93.0064041796875,9.980762481689453,94.6515641796875,9.980762481689453C96.2967241796875,9.980762481689453,97.5580141796875,10.419471481689452,98.4902741796875,11.351732481689453C99.3677341796875,12.229152481689454,99.8612341796875,13.490442481689453,99.8612341796875,15.080762481689453L99.8612341796875,15.190442481689452L97.3386541796875,15.190442481689452L97.3386541796875,15.025922481689452C97.3386541796875,14.258182481689452,97.1193041796875,13.600112481689454,96.6805941796875,13.051732481689452C96.2418841796875,12.558182481689453,95.5838241796875,12.283992481689452,94.6515641796875,12.283992481689452C93.7741441796875,12.283992481689452,93.0612441796875,12.558182481689453,92.5128541796875,13.106572481689453C92.0193141796875,13.654952481689453,91.7451141796875,14.422702481689452,91.7451141796875,15.354952481689452L91.7451141796875,18.645272481689453C91.7451141796875,19.577532481689452,92.0193141796875,20.345262481689453,92.5128541796875,20.893662481689454C93.0064041796875,21.442062481689455,93.7193041796875,21.716262481689455,94.6515641796875,21.716262481689455C95.5838241796875,21.716262481689455,96.2418841796875,21.442062481689455,96.6805941796875,20.948462481689454C97.1193041796875,20.454962481689453,97.3386541796875,19.796892481689454,97.3386541796875,18.974312481689452L97.3386541796875,18.645272481689453L99.8612341796875,18.645272481689453L99.8612341796875,18.919472481689454C99.8612341796875,20.509762481689453,99.4225341796875,21.716262481689455,98.4902741796875,22.648462481689453C97.6128541796875,23.525962481689454,96.3515541796875,23.96466248168945,94.6515641796875,23.96466248168945Z" fill="#FFFFFF" fill-opacity="1"/></g><g><path d="M102,23.690464044189454L102,10.309864044189453L104.4129,10.309864044189453L104.4129,15.355024044189452L104.74194,15.355024044189452C104.90645,15.025994044189453,105.18065,14.751804044189452,105.61936,14.477604044189453C106.05807,14.203414044189453,106.66129,14.038894044189453,107.48387,14.038894044189453C108.25161,14.038894044189453,108.85484,14.203414044189453,109.45807,14.532444044189454C110.00645,14.861474044189453,110.44517,15.355024044189452,110.77419,15.958254044189452C111.10323,16.561474044189453,111.2129,17.274384044189453,111.2129,18.042124044189453L111.2129,23.74536404418945L108.8,23.74536404418945L108.8,18.261474044189452C108.8,17.548574044189454,108.63549,17.000184044189453,108.25162,16.671154044189453C107.92258,16.287284044189455,107.3742,16.122774044189452,106.77097,16.122774044189452C106.00324,16.122774044189452,105.45485,16.342124044189454,105.07097,16.835674044189453C104.6871,17.329224044189452,104.46774,18.042124044189453,104.46774,18.919544044189454L104.46774,23.74536404418945L102,23.74536404418945L102,23.690464044189454Z" fill="#FFFFFF" fill-opacity="1"/></g><g><path d="M116.806463359375,23.964617169189452C116.148393359375,23.964617169189452,115.545163359375,23.854957169189454,114.996783359375,23.635607169189456C114.448393359375,23.416247169189454,114.009682359375,23.032387169189455,113.735488359375,22.59366716918945C113.406452359375,22.154967169189455,113.241943359375,21.606577169189453,113.241943359375,20.948507169189455C113.241943359375,19.961417169189453,113.570979359375,19.248507169189452,114.283873359375,18.700127169189454C114.996783359375,18.20657716918945,115.874193359375,17.932377169189454,116.916133359375,17.932377169189454L119.548393359375,17.932377169189454L119.548393359375,17.383997169189453C119.548393359375,16.945287169189452,119.383873359375,16.561417169189454,119.109683359375,16.287217169189454C118.835493359375,16.013027169189453,118.39678335937501,15.848507169189453,117.738713359375,15.848507169189453C117.135483359375,15.848507169189453,116.696783359375,16.013027169189453,116.367743359375,16.287217169189454C116.038713359375,16.561417169189454,115.874203359375,16.890447169189454,115.819363359375,17.329157169189454L113.570970359375,16.561417169189454C113.735488359375,16.067867169189455,113.954840359375,15.629157169189453,114.283873359375,15.245287169189453C114.612913359375,14.861413169189452,115.051613359375,14.532382169189454,115.654843359375,14.258188169189452C116.203233359375,13.983995169189454,116.916133359375,13.874317169189453,117.738713359375,13.874317169189453C119.000003359375,13.874317169189453,119.987103359375,14.203349169189453,120.700003359375,14.806575169189454C121.412903359375,15.409797169189453,121.796773359375,16.342057169189452,121.796773359375,17.548507169189453L121.796773359375,21.113027169189454C121.796773359375,21.496897169189452,121.961293359375,21.71624716918945,122.345163359375,21.71624716918945L123.112903359375,21.71624716918945L123.112903359375,23.690447169189454L121.522583359375,23.690447169189454C121.029043359375,23.690447169189454,120.645163359375,23.580767169189453,120.370963359375,23.361407169189455C120.041933359375,23.142057169189453,119.932253359375,22.813027169189454,119.932253359375,22.429157169189452L119.548393359375,22.429157169189452C119.493553359375,22.59366716918945,119.383873359375,22.758187169189455,119.219363359375,23.032377169189452C119.054843359375,23.306567169189453,118.780643359375,23.52592716918945,118.39678335937501,23.690447169189454C117.95807335937499,23.909817169189452,117.464523359375,23.964617169189452,116.806463359375,23.964617169189452ZM117.190333359375,22.045287169189454C117.848393359375,22.045287169189454,118.39678335937501,21.880767169189454,118.835493359375,21.496897169189452C119.274203359375,21.113027169189454,119.493553359375,20.61947716918945,119.493553359375,20.016247169189455L119.493553359375,19.742057169189454L117.080653359375,19.742057169189454C116.641943359375,19.742057169189454,116.258073359375,19.851737169189455,116.038723359375,20.016247169189455C115.764523359375,20.18076716918945,115.654853359375,20.454957169189452,115.654853359375,20.838837169189453C115.654853359375,21.222707169189455,115.764523359375,21.442057169189454,116.038723359375,21.661417169189452C116.312913359375,21.935607169189453,116.696783359375,22.045287169189454,117.190333359375,22.045287169189454Z" fill="#FFFFFF" fill-opacity="1"/></g><g><path d="M127.8838549609375,23.690261309814453C127.2806249609375,23.690261309814453,126.73224496093749,23.470961309814452,126.3483749609375,23.08706130981445C125.9645049609375,22.703161309814455,125.7451449609375,22.154761309814454,125.7451449609375,21.496761309814453L125.7451449609375,16.12254130981445L123.3870849609375,16.12254130981445L123.3870849609375,14.148351309814453L125.7451549609375,14.148351309814453L125.7451549609375,11.187061309814453L128.1580549609375,11.187061309814453L128.1580549609375,14.148351309814453L130.7903149609375,14.148351309814453L130.7903149609375,16.12254130981445L128.1580549609375,16.12254130981445L128.1580549609375,21.058031309814453C128.1580549609375,21.441861309814453,128.3225649609375,21.661261309814453,128.7064349609375,21.661261309814453L130.5709549609375,21.661261309814453L130.5709549609375,23.635461309814453L127.8838549609375,23.635461309814453L127.8838549609375,23.690261309814453Z" fill="#FFFFFF" fill-opacity="1"/></g></g><g><g><path d="M29.5581,34L4.3871,34C1.97419,34,0,32.0258,0,29.6129L0,4.3871C0,1.97419,1.97419,0,4.3871,0L29.5581,0C31.971,0,33.9452,1.97419,33.9452,4.3871L33.9452,29.6129C33.9452,32.0258,31.971,34,29.5581,34Z" fill-rule="evenodd" fill="#854DFF" fill-opacity="1"/></g><g></g><g><g><path d="M16.396802850341796,6.635301807250976C17.493602850341794,5.099818307250977,19.632302850341794,4.715947807250976,21.167802850341797,5.867560807250976C22.703302850341796,7.019171807250976,23.087202850341797,9.103041807250976,21.935602850341798,10.638531807250978L11.242012850341798,25.554661807250977C10.145232850341797,27.090161807250976,8.006522850341797,27.474061807250976,6.471042850341797,26.322361807250978C4.935559950341797,25.225661807250976,4.5516888503417965,23.086961807250976,5.703301850341797,21.551461807250977L16.396802850341796,6.635301807250976Z" fill-rule="evenodd" fill="#FFFFFF" fill-opacity="1"/></g><g><path d="M18.919322967529297,20.56448376037598C18.919322967529297,18.590283760375975,20.509642967529295,16.999963760375977,22.4838429675293,16.999963760375977C24.4580329675293,16.999963760375977,26.048352967529297,18.590283760375975,26.048352967529297,20.56448376037598C26.048352967529297,22.53867376037598,24.4580329675293,24.128993760375977,22.4838429675293,24.128993760375977C20.509642967529295,24.128993760375977,18.919322967529297,22.53867376037598,18.919322967529297,20.56448376037598Z" fill-rule="evenodd" fill="#FFFFFF" fill-opacity="1"/></g></g></g></g></g></svg>