<svg xmlns="http://www.w3.org/2000/svg" xmlns:xlink="http://www.w3.org/1999/xlink" fill="none" version="1.1" width="184.698974609375" height="38" viewBox="0 0 184.698974609375 38"><g><g><path d="M10.6021,31.9178L0,38L0,0L32.9222,18.9721L65.8443,0L65.8443,38L55.2423,31.9178L55.2423,18.3583L43.5242,25.1101L32.9222,19.0279L22.3759,25.1101L10.6021,18.3583L10.6021,31.9178Z" fill="#009CDE" fill-opacity="1"/></g><g><g><path d="M93.85610350341797,27.509555365014077L90.00590350341797,27.509555365014077L90.00590350341797,16.684285365014077C90.00590350341797,16.628485365014075,90.00590350341797,16.628485365014075,89.95010350341796,16.684285365014077L85.15124350341797,23.826755365014076C85.09544350341797,23.882555365014078,85.03964350341796,23.882555365014078,85.03964350341796,23.826755365014076L80.29662350341798,16.740085365014075C80.24081350341797,16.684285365014077,80.24081350341797,16.684285365014077,80.24081350341797,16.740085365014075L80.24081350341797,27.453755365014075L76.44640350341797,27.453755365014075L76.44640350341797,10.546255365014076L80.51982350341797,10.546255365014076Q80.57563350341798,10.546255365014076,80.57563350341798,10.602055865014076L85.09545350341797,17.688695365014077Q85.09545350341797,17.688695365014077,85.15126350341797,17.688695365014077L89.67110350341797,10.602055865014076L89.72690350341797,10.546255365014076L93.80030350341796,10.546255365014076Q93.85610350341797,10.546255365014076,93.85610350341797,10.602055865014076L93.85610350341797,27.509555365014077Z" fill="#002855" fill-opacity="1"/></g><g><path d="M114.33480388793946,27.509554852581026L110.31720388793946,27.509554852581026L108.81060388793945,23.994154852581026L108.75480388793946,23.938354852581025L101.38913388793945,23.938354852581025Q101.33333388793946,23.938354852581025,101.33333388793946,23.994154852581026L99.82672388793945,27.509554852581026L95.92070388793945,27.509554852581026L103.34214388793946,10.546255352581024Q103.34214388793946,10.490454852581024,103.39794388793945,10.490454852581024L106.85760388793945,10.490454852581024Q106.85760388793945,10.490454852581024,106.91340388793945,10.490454852581024L114.33480388793946,27.509554852581026ZM102.72834388793946,20.590354852581022C102.72834388793946,20.646154852581024,102.72834388793946,20.646154852581024,102.72834388793946,20.590354852581022C102.72834388793946,20.646154852581024,102.72834388793946,20.646154852581024,102.72834388793946,20.590354852581022L107.35980388793945,20.646154852581024L105.07195388793946,15.121874852581024Q105.07195388793946,15.121874852581024,105.01615388793945,15.121874852581024L102.72834388793946,20.590354852581022Z" fill="#002855" fill-opacity="1"/></g><g><path d="M131.6329050415039,27.509553282165527L127.05730504150391,27.509553282165527L123.3186550415039,22.208553282165525L123.26284504150391,22.152753282165527L120.30542504150391,22.152753282165527Q120.2496250415039,22.152753282165527,120.2496250415039,22.208553282165525L120.2496250415039,27.45375328216553L116.3436050415039,27.45375328216553L116.3436050415039,10.490453782165527Q116.3436050415039,10.434653282165527,116.3994087415039,10.434653282165527C119.02202504150391,10.434653282165527,121.6446350415039,10.434653282165527,124.2672550415039,10.434653282165527C124.8810650415039,10.434653282165527,125.3832550415039,10.434653282165527,125.6622650415039,10.490453782165527C128.3965050415039,10.825255282165527,130.6285050415039,12.276063282165527,131.0191050415039,15.233483282165526C131.3539050415039,18.079293282165526,130.0705050415039,20.534553282165525,127.3363050415039,21.483153282165528Q127.2805050415039,21.483153282165528,127.3363050415039,21.53895328216553L131.6329050415039,27.509553282165527ZM124.8810650415039,18.860503282165528C126.3318750415039,18.63729328216553,127.22470504150391,17.688693282165527,127.1131050415039,16.18208328216553C127.0015050415039,14.508073282165526,125.60646504150391,13.950073282165528,124.0998550415039,13.894273282165528C123.26285504150391,13.894273282165528,121.97944504150391,13.894273282165528,120.24964504150391,13.894273282165528Q120.1938350415039,13.894273282165528,120.1938350415039,13.950073282165528L120.1938350415039,18.91630328216553C121.4214450415039,18.91630328216553,122.64904504150391,18.91630328216553,123.87666504150391,18.91630328216553C124.37885504150391,18.91630328216553,124.71365504150391,18.860503282165528,124.8810650415039,18.860503282165528Z" fill="#002855" fill-opacity="1"/></g><g><path d="M147.7034178039551,27.509554852581026L134.47871780395508,27.509554852581026L134.47871780395508,10.546255352581024Q134.47871780395508,10.490454852581024,134.5345215039551,10.490454852581024L147.59181780395508,10.490454852581024Q147.6476178039551,10.490454852581024,147.6476178039551,10.546255352581024L147.6476178039551,13.838474852581024Q147.6476178039551,13.894274852581024,147.59181780395508,13.894274852581024L138.3289478039551,13.894274852581024L138.3289478039551,17.298094852581023L146.47581780395507,17.298094852581023L146.47581780395507,20.590354852581022L138.3289478039551,20.590354852581022Q138.27313780395508,20.590354852581022,138.27313780395508,20.646154852581024L138.27313780395508,24.161554852581023Q138.27313780395508,24.217354852581025,138.3289478039551,24.217354852581025L147.7034178039551,24.217354852581025L147.7034178039551,27.509554852581026Z" fill="#002855" fill-opacity="1"/></g><g><path d="M163.38328397216796,27.509555365014077L151.05138397216797,27.509555365014077L151.05138397216797,10.546255365014076L154.84579397216797,10.546255365014076L154.84579397216797,24.105755365014076Q154.84579397216797,24.161555365014074,154.90160397216798,24.161555365014074L163.38328397216796,24.161555365014074Q163.43908397216796,24.161555365014074,163.43908397216796,24.217355365014075L163.38328397216796,27.509555365014077Z" fill="#002855" fill-opacity="1"/></g><g><path d="M178.44936978759765,27.509555365014077L166.11746978759766,27.509555365014077L166.11746978759766,10.546255365014076L169.91187978759766,10.546255365014076Q169.96768978759766,10.546255365014076,169.96768978759766,10.602055865014076L169.96768978759766,24.161555365014074Q169.96768978759766,24.217355365014075,170.02348978759767,24.217355365014075L178.50516978759765,24.217355365014075Q178.56096978759766,24.217355365014075,178.56096978759766,24.273155365014077L178.44936978759765,27.509555365014077Z" fill="#002855" fill-opacity="1"/></g><g><path d="M184.6989748828125,27.509555365014077L180.8487548828125,27.509555365014077L180.8487548828125,10.546255365014076L184.6431648828125,10.546255365014076Q184.6989748828125,10.546255365014076,184.6989748828125,10.602055865014076L184.6989748828125,27.509555365014077Z" fill="#002855" fill-opacity="1"/></g></g></g></svg>