<svg xmlns="http://www.w3.org/2000/svg" xmlns:xlink="http://www.w3.org/1999/xlink" fill="none" version="1.1" width="166" height="34" viewBox="0 0 166 34"><g><g><g><path d="M9.48605,28.558L0,34L0,0L29.4567,16.975L58.9134,0L58.9134,34L49.4273,28.558L49.4273,16.4258L38.9427,22.467L29.4567,17.025L20.0206,22.467L9.48605,16.4258L9.48605,28.558Z" fill="#009CDE" fill-opacity="1"/></g><g><g><path d="M83.9765140625,24.613822916638853L80.5316140625,24.613822916638853L80.5316140625,14.928042916638852C80.5316140625,14.878122916638851,80.5316140625,14.878122916638851,80.4816140625,14.928042916638852L76.1879540625,21.31862291663885C76.1380240625,21.36862291663885,76.0881040625,21.36862291663885,76.0881040625,21.31862291663885L71.8443440625,14.977972916638851C71.7944140625,14.928042916638852,71.7944140625,14.928042916638852,71.7944140625,14.977972916638851L71.7944140625,24.56392291663885L68.3994140625,24.56392291663885L68.3994140625,9.436122916638851L72.0440540625,9.436122916638851Q72.0939840625,9.436122916638851,72.0939840625,9.48604971663885L76.1380440625,15.82672291663885Q76.1380440625,15.82672291663885,76.1879740625,15.82672291663885L80.2320140625,9.48604971663885L80.2819140625,9.436122916638851L83.9266140625,9.436122916638851Q83.9765140625,9.436122916638851,83.9765140625,9.48604971663885L83.9765140625,24.613822916638853Z" fill="#FFFFFF" fill-opacity="1"/></g><g><path d="M102.29958768920898,24.613796147650483L98.70488768920899,24.613796147650483L97.35678768920899,21.46839614765048L97.30688768920899,21.41849614765048L90.71659768920898,21.41849614765048Q90.66666768920898,21.41849614765048,90.66666768920898,21.46839614765048L89.31864768920899,24.613796147650483L85.82378768920898,24.613796147650483L92.46402768920899,9.43612294765048Q92.46402768920899,9.38619614765048,92.51395768920898,9.38619614765048L95.60939768920899,9.38619614765048Q95.60939768920899,9.38619614765048,95.65932768920898,9.38619614765048L102.29958768920898,24.613796147650483ZM91.91483768920898,18.42290614765048C91.91483768920898,18.47283614765048,91.91483768920898,18.47283614765048,91.91483768920898,18.42290614765048C91.91483768920898,18.47283614765048,91.91483768920898,18.47283614765048,91.91483768920898,18.42290614765048L96.05878768920898,18.47283614765048L94.01174768920899,13.53010614765048Q94.01174768920899,13.53010614765048,93.96181768920898,13.53010614765048L91.91483768920898,18.42290614765048Z" fill="#FFFFFF" fill-opacity="1"/></g><g><path d="M117.7768123840332,24.613768424987793L113.6828223840332,24.613768424987793L110.3377423840332,19.870768424987794L110.2878123840332,19.820868424987793L107.64170238403321,19.820868424987793Q107.5917723840332,19.820868424987793,107.5917723840332,19.870768424987794L107.5917723840332,24.563868424987795L104.0969123840332,24.563868424987795L104.0969123840332,9.386195224987793Q104.0969123840332,9.336268424987793,104.1468419840332,9.336268424987793C106.4933923840332,9.336268424987793,108.83994238403321,9.336268424987793,111.1864923840332,9.336268424987793C111.7356923840332,9.336268424987793,112.1850223840332,9.336268424987793,112.4346623840332,9.386195224987793C114.8810123840332,9.685754424987794,116.8781123840332,10.983848424987793,117.22761238403321,13.629958424987793C117.5272123840332,16.17620842498779,116.37881238403321,18.372978424987792,113.9324523840332,19.221728424987795Q113.88252238403321,19.221728424987795,113.9324523840332,19.27165842498779L117.7768123840332,24.613768424987793ZM111.7356923840332,16.875178424987794C113.0337823840332,16.675478424987794,113.83260238403321,15.826728424987792,113.7327523840332,14.478708424987794C113.6329023840332,12.980908424987792,112.3847323840332,12.481648424987792,111.0367223840332,12.431718424987793C110.2878223840332,12.431718424987793,109.1395123840332,12.431718424987793,107.5917923840332,12.431718424987793Q107.54186238403321,12.431718424987793,107.54186238403321,12.481648424987792L107.54186238403321,16.925108424987794C108.6402423840332,16.925108424987794,109.7386223840332,16.925108424987794,110.8370123840332,16.925108424987794C111.2863423840332,16.925108424987794,111.58591238403321,16.875178424987794,111.7356923840332,16.875178424987794Z" fill="#FFFFFF" fill-opacity="1"/></g><g><path d="M132.1556667114258,24.613796147650483L120.32306671142578,24.613796147650483L120.32306671142578,9.43612294765048Q120.32306671142578,9.38619614765048,120.37299631142578,9.38619614765048L132.05586671142578,9.38619614765048Q132.1057667114258,9.38619614765048,132.1057667114258,9.43612294765048L132.1057667114258,12.38178614765048Q132.1057667114258,12.43171614765048,132.05586671142578,12.43171614765048L123.76800671142578,12.43171614765048L123.76800671142578,15.47723614765048L131.05726671142577,15.47723614765048L131.05726671142577,18.42290614765048L123.76800671142578,18.42290614765048Q123.71807671142578,18.42290614765048,123.71807671142578,18.47283614765048L123.71807671142578,21.61819614765048Q123.71807671142578,21.66809614765048,123.76800671142578,21.66809614765048L132.1556667114258,21.66809614765048L132.1556667114258,24.613796147650483Z" fill="#FFFFFF" fill-opacity="1"/></g><g><path d="M146.18504511718749,24.613822916638853L135.1512451171875,24.613822916638853L135.1512451171875,9.436122916638851L138.5462451171875,9.436122916638851L138.5462451171875,21.56832291663885Q138.5462451171875,21.61822291663885,138.5961751171875,21.61822291663885L146.18504511718749,21.61822291663885Q146.2349451171875,21.61822291663885,146.2349451171875,21.66812291663885L146.18504511718749,24.613822916638853Z" fill="#FFFFFF" fill-opacity="1"/></g><g><path d="M159.6652239501953,24.613822916638853L148.6314239501953,24.613822916638853L148.6314239501953,9.436122916638851L152.02642395019532,9.436122916638851Q152.0763539501953,9.436122916638851,152.0763539501953,9.48604971663885L152.0763539501953,21.61822291663885Q152.0763539501953,21.66812291663885,152.1262839501953,21.66812291663885L159.7151239501953,21.66812291663885Q159.7650239501953,21.66812291663885,159.7650239501953,21.71802291663885L159.6652239501953,24.613822916638853Z" fill="#FFFFFF" fill-opacity="1"/></g><g><path d="M165.25697986572266,24.613822916638853L161.81204986572266,24.613822916638853L161.81204986572266,9.436122916638851L165.20704986572267,9.436122916638851Q165.25697986572266,9.436122916638851,165.25697986572266,9.48604971663885L165.25697986572266,24.613822916638853Z" fill="#FFFFFF" fill-opacity="1"/></g></g></g></g></svg>