<svg xmlns="http://www.w3.org/2000/svg" viewBox="0 0 16 18"><defs><style>.cls-1{fill:#bfc0c1;}.cls-2{fill:#fff;}.cls-3{fill:#333;}.cls-4{fill:none;stroke:#fff;stroke-linecap:round;stroke-miterlimit:10;stroke-width:0.6px;}</style></defs><title>资源 94</title><g id="图层_2" data-name="图层 2"><g id="图层_1-2" data-name="图层 1"><path class="cls-1" d="M12.5,18H1.5A1.5,1.5,0,0,1,0,16.5V1.5A1.5,1.5,0,0,1,1.5,0H9.38a1.5,1.5,0,0,1,1.06.44l3.12,3.12A1.5,1.5,0,0,1,14,4.62V16.5A1.5,1.5,0,0,1,12.5,18Z"/><rect class="cls-2" x="2.5" y="8" width="3.86" height="1.29" rx="0.2"/><rect class="cls-2" x="7.64" y="8" width="3.86" height="1.29" rx="0.2"/><rect class="cls-2" x="2.5" y="10.57" width="3.86" height="1.29" rx="0.2"/><rect class="cls-2" x="7.64" y="10.57" width="3.86" height="1.29" rx="0.2"/><rect class="cls-2" x="2.5" y="13.14" width="3.86" height="1.29" rx="0.2"/><rect class="cls-2" x="7.64" y="13.14" width="3.86" height="1.29" rx="0.2"/><circle class="cls-3" cx="13" cy="15" r="3"/><line class="cls-4" x1="11.8" y1="15" x2="14.2" y2="15"/><line class="cls-4" x1="13" y1="13.8" x2="13" y2="16.2"/></g></g></svg>