<svg xmlns="http://www.w3.org/2000/svg" xmlns:xlink="http://www.w3.org/1999/xlink" fill="none" version="1.1" width="140.53871154785156" height="38" viewBox="0 0 140.53871154785156 38"><defs><clipPath id="master_svg0_38_142"><rect x="0" y="0" width="140.53871154785156" height="38" rx="0"/></clipPath></defs><g clip-path="url(#master_svg0_38_142)"><g><g><g></g><g><path d="M0.122558712479,5.148403666992188C0.122558712479,2.3903336669921873,2.32900859375,0.1838836669921875,5.08707859375,0.1838836669921875L32.79025859375,0.1838836669921875C35.54835859375,0.1838836669921875,37.75485859375,2.3903336669921873,37.75485859375,5.148403666992188L37.75485859375,32.91288366699219C37.75485859375,35.670983666992186,35.54835859375,37.87738366699219,32.79025859375,37.87738366699219L5.08707859375,37.87738366699219C2.32900859375,37.87738366699219,0.12255859375,35.670983666992186,0.12255859375,32.91288366699219L0.122558712479,5.148403666992188Z" fill-rule="evenodd" fill="#854DFF" fill-opacity="1"/></g><g><path d="M18.26451416015625,7.416117124023438C19.490314160156252,5.699987124023438,21.88061416015625,5.270955124023438,23.59671416015625,6.558052124023438C25.31291416015625,7.783857124023438,25.74191416015625,10.174177124023437,24.45481416015625,11.890307124023437L12.50321416015625,28.561277124023437C11.27740416015625,30.277377124023438,8.887084160156249,30.706477124023436,7.17095416015625,29.419377124023438C5.45482516015625,28.193577124023438,5.02579316015625,25.80317712402344,6.31289016015625,24.087077124023438L18.26451416015625,7.416117124023438Z" fill-rule="evenodd" fill="#FFFFFF" fill-opacity="1"/></g><g><path d="M21.145172119140625,22.98387C21.145172119140625,20.77742,22.922592119140624,19,25.129042119140625,19C27.335492119140625,19,29.112912119140624,20.77742,29.112912119140624,22.98387C29.112912119140624,25.19032,27.335492119140625,26.96774,25.129042119140625,26.96774C22.922592119140624,26.96774,21.145172119140625,25.19032,21.145172119140625,22.98387Z" fill-rule="evenodd" fill="#FFFFFF" fill-opacity="1"/></g></g><g><g><path d="M48.725799560546875,26.47736393432617L48.725799560546875,11.522563934326172L51.66773956054688,11.522563934326172L57.79676956054688,21.512883934326172L57.79676956054688,11.522563934326172L60.61609956054687,11.522563934326172L60.61609956054687,26.41606393432617L57.61289956054688,26.41606393432617L51.606439560546875,16.67095393432617L51.606439560546875,26.41606393432617L48.725799560546875,26.41606393432617L48.725799560546875,26.47736393432617Z" fill="#000000" fill-opacity="1"/></g><g><path d="M63.0677490234375,20.899980838623048C63.0677490234375,19.980620838623047,63.3129110234375,19.061270838623045,63.7419420234375,18.141910838623048C64.1709690234375,17.222560838623046,64.8451690234375,16.548370838623047,65.7032290234375,16.119334838623047C66.5612990234375,15.629012838623046,67.5419390234375,15.445140838623047,68.5838690234375,15.445140838623047C70.2387090234375,15.445140838623047,71.5870990234375,15.996753838623047,72.6290290234375,17.038690838623047C73.6709490234375,18.080620838623048,74.2225490234375,19.429010838623046,74.2225490234375,21.083850838623047C74.2225490234375,22.738690838623047,73.6709490234375,24.087080838623045,72.6290290234375,25.129010838623046C71.5870990234375,26.23224083862305,70.2387090234375,26.722540838623047,68.6451590234375,26.722540838623047C67.6645190234375,26.722540838623047,66.6838790234375,26.477440838623046,65.8258090234375,26.048340838623048C64.9064490234375,25.619340838623046,64.2322590234375,24.945140838623047,63.8032260234375,24.08707083862305C63.3129110234375,23.167720838623048,63.0677490234375,22.125780838623047,63.0677490234375,20.899980838623048ZM66.0096790234375,21.083850838623047C66.0096790234375,22.125790838623047,66.2548390234375,22.98385083862305,66.7451590234375,23.535460838623045C67.2354790234375,24.087080838623045,67.9096790234375,24.393530838623047,68.6451590234375,24.393530838623047C69.3806490234375,24.393530838623047,69.9935490234375,24.087080838623045,70.5451590234375,23.535460838623045C71.0354890234375,22.98385083862305,71.2806390234375,22.125790838623047,71.2806390234375,21.022560838623047C71.2806390234375,19.980630838623046,71.0354790234375,19.12256083862305,70.5451590234375,18.570950838623048C70.0548390234375,18.019340838623048,69.4419290234375,17.712880838623047,68.6451590234375,17.712880838623047C67.8483890234375,17.712880838623047,67.2967790234375,18.019340838623048,66.7451590234375,18.570950838623048C66.1935490234375,19.12256083862305,66.0096790234375,19.980620838623047,66.0096790234375,21.083850838623047Z" fill="#000000" fill-opacity="1"/></g><g><path d="M79.43223744140624,26.4774190612793L75.08062744140625,15.690320230299298L78.08385744140625,15.690320230299298L80.10643744140626,21.206449061279297L80.71933744140625,23.045159061279296C80.90320744140625,22.554839061279296,80.96449744140625,22.248379061279298,81.02578744140625,22.125799061279295C81.14836744140625,21.819349061279297,81.20966744140625,21.5128990612793,81.33224744140625,21.206449061279297L83.41610744140625,15.690319061279297L86.35802744140625,15.690319061279297L82.06772744140625,26.4774190612793L79.43223744140624,26.4774190612793Z" fill="#000000" fill-opacity="1"/></g><g><path d="M90.21932408203125,18.938716800537108L87.64513608203124,18.44839680053711C87.95158708203125,17.40645680053711,88.44191408203125,16.60968680053711,89.17739408203126,16.11936080053711C89.91287408203125,15.62903880053711,90.95481408203125,15.38387680053711,92.36448408203125,15.38387680053711C93.65158408203125,15.38387680053711,94.57094408203125,15.50645780053711,95.18384408203124,15.81290980053711C95.79675408203124,16.11936080053711,96.22578408203125,16.48710680053711,96.53223408203125,16.97742680053711C96.77739408203125,17.46774680053711,96.89997408203125,18.26452680053711,96.89997408203125,19.55161680053711L96.89997408203125,22.86129680053711C96.89997408203125,23.78065680053711,96.96127408203125,24.51613680053711,97.02255408203125,24.94516680053711C97.08385408203125,25.37419680053711,97.26771408203125,25.864476800537112,97.51288408203125,26.41617680053711L94.69352408203125,26.41617680053711C94.63222408203126,26.232276800537107,94.50965408203125,25.925776800537108,94.44836408203125,25.55807680053711C94.38707408203125,25.37419680053711,94.38707408203125,25.251616800537107,94.32578408203125,25.251616800537107C93.83546408203125,25.74197680053711,93.34513408203125,26.10967680053711,92.73223408203125,26.29357680053711C92.11933408203124,26.477376800537108,91.56772408203125,26.66127680053711,90.95481408203125,26.66127680053711C89.85159408203126,26.66127680053711,88.99353408203125,26.35487680053711,88.31933308203125,25.74197680053711C87.70643008203125,25.129036800537108,87.33868408203125,24.39355680053711,87.33868408203125,23.474196800537108C87.33868408203125,22.86129680053711,87.46126308203125,22.309686800537108,87.76771408203125,21.819356800537108C88.07416608203125,21.32903680053711,88.44191408203125,20.96129680053711,88.99352408203126,20.716136800537107C89.54513408203125,20.47097680053711,90.28062408203125,20.22581680053711,91.26126408203125,20.04194680053711C92.60964408203125,19.79677680053711,93.52900408203125,19.55161680053711,94.01932408203125,19.36774680053711L94.01932408203125,19.06129680053711C94.01932408203125,18.50968680053711,93.89674408203125,18.14194680053711,93.59029408203125,17.89678680053711C93.34513408203125,17.65161680053711,92.79351408203125,17.52903680053711,92.05803408203126,17.52903680053711C91.56771408203124,17.52903680053711,91.13868408203125,17.65161680053711,90.89352408203125,17.835496800537108C90.58707408203125,18.08064680053711,90.34190408203125,18.44839680053711,90.21932408203125,18.938716800537108ZM94.01932408203125,21.26774680053711C93.65158408203125,21.39032680053711,93.09997408203125,21.51290680053711,92.30319408203125,21.69677680053711C91.50641408203126,21.880646800537107,91.01609408203124,22.00322680053711,90.77093408203125,22.18710680053711C90.40319408203125,22.43226680053711,90.21932408203125,22.80000680053711,90.21932408203125,23.16774680053711C90.21932408203125,23.596776800537107,90.34190408203125,23.90322680053711,90.64835408203125,24.20968680053711C90.95481408203125,24.51613680053711,91.32255408203125,24.63871680053711,91.81287408203124,24.63871680053711C92.30319408203125,24.63871680053711,92.79351408203125,24.454846800537112,93.28383408203125,24.148396800537107C93.65158408203125,23.90322680053711,93.83544408203124,23.596776800537107,93.95803408203125,23.22903680053711C94.01932408203125,22.98387680053711,94.08061408203125,22.49355680053711,94.08061408203125,21.819356800537108L94.08061408203125,21.26774680053711L94.01932408203125,21.26774680053711Z" fill="#000000" fill-opacity="1"/></g><g><path d="M106.5838553125,20.961281673583983L106.5838553125,18.448381673583985L113.0806453125,18.448381673583985L113.0806453125,24.393521673583983C112.4677453125,25.006421673583986,111.5483453125,25.558021673583987,110.3225453125,25.987121673583985C109.0967553125,26.477421673583983,107.9322453125,26.661321673583984,106.7064453125,26.661321673583984C105.1741853125,26.661321673583984,103.7645053125,26.354821673583984,102.5999953125,25.680621673583985C101.4354753125,25.006421673583986,100.5774053125,24.087121673583987,99.9645063125,22.861321673583987C99.3516033125,21.635521673583984,99.1064453125,20.348381673583987,99.1064453125,18.877411673583985C99.1064453125,17.345151673583985,99.4128973125,15.935481673583984,100.0870943125,14.709671673583983C100.7612953125,13.483861673583984,101.6806453125,12.564511673583985,102.9677353125,11.951605673583984C103.9483853125,11.461283673583985,105.1128953125,11.216121673583984,106.5225753125,11.216121673583984C108.3612853125,11.216121673583984,109.83224531249999,11.583863673583984,110.8741453125,12.380641673583984C111.91614531249999,13.177411673583984,112.5903453125,14.219351673583985,112.8967453125,15.629021673583985L109.8935453125,16.180641673583985C109.7096453125,15.445151673583984,109.2806453125,14.893541673583984,108.7290453125,14.464511673583985C108.1774353125,14.035481673583984,107.4419453125,13.851601673583984,106.5838853125,13.851601673583984C105.2967853125,13.851601673583984,104.1935653125,14.280641673583984,103.4580753125,15.077411673583985C102.6612953125,15.935481673583984,102.2935553125,17.161281673583986,102.2935553125,18.816121673583986C102.2935553125,20.593541673583985,102.6613053125,21.941921673583984,103.4580753125,22.800021673583984C104.2548453125,23.658021673583985,105.2967853125,24.148421673583982,106.5225853125,24.148421673583982C107.1354953125,24.148421673583982,107.8096853125,24.025821673583984,108.4225853125,23.780621673583987C109.0354953125,23.535521673583986,109.5871453125,23.229021673583986,110.0774453125,22.861321673583987L110.0774453125,20.961281673583983L106.5838553125,20.961281673583983Z" fill="#000000" fill-opacity="1"/></g><g><path d="M115.89999389648438,26.47736393432617L115.89999389648438,11.522563934326172L120.74192389648438,11.522563934326172C122.58063389648437,11.522563934326172,123.74514389648438,11.583854534326171,124.29676389648438,11.767724934326171C125.15482389648437,12.012885934326173,125.89031389648437,12.503208934326171,126.44189389648437,13.238693934326172C126.99349389648438,13.974173934326172,127.29999389648438,14.954823934326171,127.29999389648438,16.11933393432617C127.29999389648438,17.038693934326172,127.11609389648437,17.83546393432617,126.80969389648438,18.44837393432617C126.50319389648438,19.061273934326174,126.07419389648437,19.55159393432617,125.52256389648437,19.919333934326172C125.03224389648437,20.287073934326173,124.48062389648437,20.53224393432617,123.99030389648438,20.654823934326174C123.25482389648437,20.777403934326173,122.21289389648437,20.838693934326173,120.86449389648438,20.838693934326173L118.90321389648437,20.838693934326173L118.90321389648437,26.47736393432617L115.89999389648438,26.47736393432617ZM118.90321389648437,14.035463934326172L118.90321389648437,18.26450393432617L120.55805389648438,18.26450393432617C121.72256389648437,18.26450393432617,122.51934389648437,18.203203934326172,122.94837389648437,18.01933393432617C123.37740389648438,17.83546393432617,123.68385389648438,17.590303934326172,123.86772389648438,17.28385393432617C124.11288389648438,16.977403934326173,124.23547389648438,16.54837393432617,124.23547389648438,16.11933393432617C124.23547389648438,15.567723934326171,124.05159389648438,15.138693934326172,123.74514389648438,14.770953934326172C123.43869389648438,14.403203934326172,123.00966389648437,14.219333934326173,122.51934389648437,14.096753934326172C122.15159389648437,14.035463934326172,121.41611389648438,13.974173934326172,120.37418389648437,13.974173934326172L118.90321389648437,13.974173934326172L118.90321389648437,14.035463934326172Z" fill="#000000" fill-opacity="1"/></g><g><path d="M133.12258627929688,26.47736393432617L133.12258627929688,14.035463934326172L128.70968627929688,14.035463934326172L128.70968627929688,11.522563934326172L140.53868627929688,11.522563934326172L140.53868627929688,14.035463934326172L136.12581627929688,14.035463934326172L136.12581627929688,26.41606393432617L133.12258627929688,26.41606393432617L133.12258627929688,26.47736393432617Z" fill="#000000" fill-opacity="1"/></g></g></g></g></svg>